<svg width='100px' height='30px' version="1.1" viewBox="0.0 0.0 957.8871391076116 197.40944881889763" fill="none" stroke="none" stroke-linecap="square" stroke-miterlimit="10" xmlns:xlink="http://www.w3.org/1999/xlink" xmlns="http://www.w3.org/2000/svg"><clipPath id="p.0"><path d="m0 0l957.88715 0l0 197.40945l-957.88715 0l0 -197.40945z" clip-rule="nonzero"/></clipPath><g clip-path="url(#p.0)"><path fill="#000000" fill-opacity="0.0" d="m0 0l957.88715 0l0 197.40945l-957.88715 0z" fill-rule="evenodd"/><path fill="#000000" fill-opacity="0.0" d="m0 -27.84252l960.0 0l0 227.84251l-960.0 0z" fill-rule="evenodd"/><path fill="#000000" d="m96.8125 130.44936q-5.421875 0 -9.296875 -2.7031326q-3.875 -2.703125 -4.8125 -8.8125q-5.421875 6.1875 -11.015625 8.8125q-5.578125 2.6250076 -11.6875 2.6250076q-4.390625 0 -7.578125 -1.546875q-3.171875 -1.5468826 -5.328125 -4.2968826q-2.140625 -2.765625 -3.171875 -6.5q-1.03125 -3.734375 -1.03125 -8.046875q0 -5.234375 1.375 -10.6875q1.375 -5.46875 4.078125 -10.625q2.703125 -5.171875 6.703125 -9.6875q4.0 -4.515625 9.25 -7.90625q5.25 -3.40625 11.734375 -5.375q6.5 -1.9843712 14.15625 -1.9843712q3.171875 0 5.75 0.265625q2.59375 0.24999619 4.828125 0.7343712q2.234375 0.46875 4.203125 1.15625q1.984375 0.6875 3.96875 1.625l-11.609375 31.828125q-1.46875 3.859375 -1.984375 6.75q-0.515625 2.875 -0.515625 4.9375q0 3.875 1.796875 5.296875q1.8125 1.421875 4.65625 1.421875q3.859375 0 7.390625 -2.921875q3.53125 -2.9375 6.234375 -8.09375q2.71875 -5.15625 4.34375 -12.203125q1.640625 -7.0625 1.640625 -15.3125q0 -9.296875 -2.625 -16.468746q-2.625 -7.1875 -7.484375 -12.046875q-4.859375 -4.859375 -11.78125 -7.34375q-6.921875 -2.5 -15.4375 -2.5q-7.5625 0 -14.578125 2.234375q-7.015625 2.234375 -13.03125 6.375q-6.015625 4.125 -10.96875 9.9375q-4.9375 5.796871 -8.46875 13.015621q-3.515625 7.21875 -5.453125 15.609375q-1.9375 8.390625 -1.9375 17.671875q0 11.703125 3.21875 20.640625q3.234375 8.937508 9.078125 15.015633q5.84375 6.0625 14.015625 9.1875q8.171875 3.140625 18.0625 3.140625q6.109375 0 11.390625 -0.6875q5.296875 -0.6875 9.640625 -1.84375q4.34375 -1.15625 7.734375 -2.625q3.390625 -1.453125 5.890625 -2.921875q1.203125 -0.6875 2.234375 -0.9375q1.03125 -0.265625 1.890625 -0.265625q1.8125 0 2.75 1.03125q0.953125 1.03125 1.375 2.5l1.5625 5.84375q-8.953125 5.84375 -20.390625 9.53125q-11.4375 3.703125 -25.625 3.703125q-13.078125 0 -23.703125 -4.25q-10.609375 -4.25 -18.1875 -12.125q-7.5625 -7.875 -11.6875 -19.046875q-4.125 -11.187508 -4.125 -25.109383q0 -10.75 2.578125 -20.765625q2.578125 -10.03125 7.21875 -18.796875q4.640625 -8.781246 11.171875 -15.953121q6.546875 -7.1875 14.40625 -12.34375q7.875 -5.15625 16.90625 -8.000002q9.03125 -2.84375 18.671875 -2.84375q10.40625 0 19.515625 3.578125q9.109375 3.562502 15.953125 10.234377q6.84375 6.65625 10.796875 16.203125q3.953125 9.546871 3.953125 21.421871q0 10.828125 -3.0625 20.171875q-3.046875 9.328125 -8.296875 16.25q-5.234375 6.921875 -12.25 10.875q-7.015625 3.9531326 -15.0 3.9531326zm-31.046875 -13.328133q1.96875 0 4.03125 -0.71875q2.0625 -0.734375 4.078125 -2.546875q2.03125 -1.8125 3.921875 -4.859375q1.890625 -3.046875 3.609375 -7.609375l8.859375 -24.421875q-2.3125 -0.515625 -4.984375 -0.515625q-5.15625 0 -9.9375 2.671875q-4.765625 2.65625 -8.421875 7.046875q-3.65625 4.375 -5.859375 10.015625q-2.1875 5.625 -2.1875 11.5625q0 4.390625 1.71875 6.890625q1.71875 2.484375 5.171875 2.484375zm127.1947 41.031258l-1.640625 13.328125l-62.4375 0l1.640625 -13.328125l62.4375 0zm62.435974 0l-1.640625 13.328125l-62.4375 0l1.640625 -13.328125l62.4375 0zm62.435974 0l-1.640625 13.328125l-62.4375 0l1.640625 -13.328125l62.4375 0zm38.60785 12.546875q-2.234375 4.390625 -6.875 4.390625l-15.75 0l19.609375 -35.515625l-22.265625 -81.53125l17.796875 0q2.328125 0 3.484375 1.171875q1.15625 1.15625 1.59375 2.78125l10.828125 45.749996q0.515625 2.234375 0.8125 4.390625q0.3125 2.15625 0.484375 4.390625q0.9375 -2.234375 1.921875 -4.421875q1.0 -2.203125 2.03125 -4.4375l21.765625 -45.749996q0.859375 -1.734375 2.484375 -2.796875q1.640625 -1.078125 3.359375 -1.078125l17.03125 0l-58.3125 112.65625zm129.69284 -92.18751q0 5.9375 -2.375 10.84375q-2.359375 4.890625 -8.46875 8.765625q-6.109375 3.859375 -16.5625 6.65625q-10.4375 2.796875 -26.609375 4.4375l0 1.109375q0 20.812508 17.625 20.812508q3.796875 0 6.71875 -0.71875q2.921875 -0.734375 5.109375 -1.765625q2.203125 -1.0312576 3.953125 -2.3125076q1.765625 -1.296875 3.265625 -2.328125q1.515625 -1.046875 2.96875 -1.765625q1.46875 -0.734375 3.1875 -0.734375q1.03125 0 2.0625 0.46875q1.03125 0.46875 1.71875 1.421875l5.421875 6.5312576q-4.5625 4.5625 -8.953125 7.921875q-4.375 3.34375 -8.9375 5.5q-4.546875 2.140625 -9.625 3.171875q-5.078125 1.046875 -11.09375 1.046875q-7.75 0 -14.03125 -2.625q-6.265625 -2.625 -10.75 -7.390625q-4.46875 -4.78125 -6.921875 -11.531258q-2.4375 -6.75 -2.4375 -15.09375q0 -6.96875 1.5 -13.671875q1.5 -6.71875 4.34375 -12.734375q2.84375 -6.015625 6.96875 -11.09375q4.125 -5.078125 9.328125 -8.765625q5.203125 -3.7031212 11.4375 -5.765621q6.234375 -2.0625 13.375 -2.0625q6.96875 0 12.171875 1.984375q5.203125 1.96875 8.6875 5.109375q3.484375 3.1406212 5.203125 7.015621q1.71875 3.859375 1.71875 7.5625zm-28.984375 -6.875q-4.296875 0 -8.0 1.765625q-3.703125 1.75 -6.671875 4.9375q-2.953125 3.171875 -5.15625 7.609375q-2.1875 4.421875 -3.484375 9.671875q10.671875 -1.453125 17.15625 -3.171875q6.5 -1.734375 10.0625 -3.796875q3.578125 -2.0625 4.734375 -4.375q1.15625 -2.328125 1.15625 -5.0q0 -1.28125 -0.5625 -2.65625q-0.546875 -1.375 -1.71875 -2.453125q-1.15625 -1.078125 -3.015625 -1.796875q-1.84375 -0.734375 -4.5 -0.734375zm70.94974 59.593758q5.328125 0 9.625 -3.046875q4.296875 -3.0625076 7.34375 -8.171883q3.0625 -5.125 4.6875 -11.921875q1.640625 -6.796875 1.640625 -14.265625q0 -10.75 -3.65625 -15.828125q-3.640625 -5.078125 -11.046875 -5.078125q-5.328125 0 -9.625 3.015625q-4.296875 3.0 -7.3125 8.171875q-3.015625 5.15625 -4.65625 11.953125q-1.625 6.78125 -1.625 14.359375q0 10.75 3.609375 15.78125q3.609375 5.0312576 11.015625 5.0312576zm-1.890625 16.34375q-7.3125 0 -13.546875 -2.453125q-6.234375 -2.453125 -10.75 -7.1875q-4.515625 -4.734375 -7.09375 -11.609383q-2.578125 -6.875 -2.578125 -15.734375q0 -11.4375 3.65625 -21.328125q3.65625 -9.890625 9.96875 -17.109375q6.328125 -7.234375 14.75 -11.359371q8.421875 -4.125 17.96875 -4.125q7.3125 0 13.546875 2.453125q6.234375 2.453125 10.796875 7.187496q4.5625 4.71875 7.140625 11.609375q2.578125 6.875 2.578125 15.734375q0 11.34375 -3.703125 21.1875q-3.6875 9.84375 -10.015625 17.125008q-6.328125 7.265625 -14.75 11.4375q-8.421875 4.171875 -17.96875 4.171875zm54.516846 -1.296875l10.578125 -88.328125l10.84375 0q3.34375 0 5.1875 1.640625q1.859375 1.640625 1.859375 5.249996l-0.59375 11.4375q6.703125 -9.890625 14.875 -14.749996q8.171875 -4.859375 16.84375 -4.859375q4.90625 0 8.90625 1.765625q4.0 1.75 6.828125 5.15625q2.84375 3.3906212 4.390625 8.343746q1.546875 4.9375 1.546875 11.390625q0 1.640625 -0.125 3.3125q-0.125 1.671875 -0.296875 3.484375l-6.625 56.156258l-21.234375 0q1.71875 -14.53125 2.921875 -24.640633q1.203125 -10.109375 1.96875 -16.8125q0.78125 -6.703125 1.203125 -10.53125q0.4375 -3.828125 0.640625 -5.796875q0.21875 -1.984375 0.265625 -2.625q0.046875 -0.65625 0.046875 -1.078125q0 -5.6875 -2.0625 -8.21875q-2.0625 -2.53125 -6.453125 -2.53125q-3.53125 0 -7.3125 2.0625q-3.78125 2.0625 -7.21875 5.84375q-3.4375 3.78125 -6.28125 9.125q-2.828125 5.328125 -4.640625 11.859375l-4.8125 43.343758l-21.25 0zm92.62195 0l10.578125 -88.328125l10.84375 0q3.34375 0 5.1875 1.640625q1.859375 1.640625 1.859375 5.249996l-0.59375 11.4375q6.703125 -9.890625 14.875 -14.749996q8.171875 -4.859375 16.84375 -4.859375q4.90625 0 8.90625 1.765625q4.0 1.75 6.828125 5.15625q2.84375 3.3906212 4.390625 8.343746q1.546875 4.9375 1.546875 11.390625q0 1.640625 -0.125 3.3125q-0.125 1.671875 -0.296875 3.484375l-6.625 56.156258l-21.234375 0q1.71875 -14.53125 2.921875 -24.640633q1.203125 -10.109375 1.96875 -16.8125q0.78125 -6.703125 1.203125 -10.53125q0.4375 -3.828125 0.640625 -5.796875q0.21875 -1.984375 0.265625 -2.625q0.046875 -0.65625 0.046875 -1.078125q0 -5.6875 -2.0625 -8.21875q-2.0625 -2.53125 -6.453125 -2.53125q-3.53125 0 -7.3125 2.0625q-3.78125 2.0625 -7.21875 5.84375q-3.4375 3.78125 -6.28125 9.125q-2.828125 5.328125 -4.640625 11.859375l-4.8125 43.343758l-21.25 0zm92.62195 0l10.578125 -88.328125l10.84375 0q3.34375 0 5.1875 1.640625q1.859375 1.640625 1.859375 5.249996l-0.59375 11.4375q6.703125 -9.890625 14.875 -14.749996q8.171875 -4.859375 16.84375 -4.859375q4.90625 0 8.90625 1.765625q4.0 1.75 6.828125 5.15625q2.84375 3.3906212 4.390625 8.343746q1.546875 4.9375 1.546875 11.390625q0 1.640625 -0.125 3.3125q-0.125 1.671875 -0.296875 3.484375l-6.625 56.156258l-21.234375 0q1.71875 -14.53125 2.921875 -24.640633q1.203125 -10.109375 1.96875 -16.8125q0.78125 -6.703125 1.203125 -10.53125q0.4375 -3.828125 0.640625 -5.796875q0.21875 -1.984375 0.265625 -2.625q0.046875 -0.65625 0.046875 -1.078125q0 -5.6875 -2.0625 -8.21875q-2.0625 -2.53125 -6.453125 -2.53125q-3.53125 0 -7.3125 2.0625q-3.78125 2.0625 -7.21875 5.84375q-3.4375 3.78125 -6.28125 9.125q-2.828125 5.328125 -4.640625 11.859375l-4.8125 43.343758l-21.25 0zm92.62195 0l10.578125 -88.328125l10.84375 0q3.34375 0 5.1875 1.640625q1.859375 1.640625 1.859375 5.249996l-0.59375 11.4375q6.703125 -9.890625 14.875 -14.749996q8.171875 -4.859375 16.84375 -4.859375q4.90625 0 8.90625 1.765625q4.0 1.75 6.828125 5.15625q2.84375 3.3906212 4.390625 8.343746q1.546875 4.9375 1.546875 11.390625q0 1.640625 -0.125 3.3125q-0.125 1.671875 -0.296875 3.484375l-6.625 56.156258l-21.234375 0q1.71875 -14.53125 2.921875 -24.640633q1.203125 -10.109375 1.96875 -16.8125q0.78125 -6.703125 1.203125 -10.53125q0.4375 -3.828125 0.640625 -5.796875q0.21875 -1.984375 0.265625 -2.625q0.046875 -0.65625 0.046875 -1.078125q0 -5.6875 -2.0625 -8.21875q-2.0625 -2.53125 -6.453125 -2.53125q-3.53125 0 -7.3125 2.0625q-3.78125 2.0625 -7.21875 5.84375q-3.4375 3.78125 -6.28125 9.125q-2.828125 5.328125 -4.640625 11.859375l-4.8125 43.343758l-21.25 0z" fill-rule="nonzero"/></g></svg>